<svg width="48" height="48" viewBox="0 0 48 48" fill="none" xmlns="http://www.w3.org/2000/svg">
<path d="M42 24C42.0059 27.5735 40.9431 31.0672 38.948 34.032C37.3027 36.4859 35.0781 38.4966 32.471 39.8863C29.8638 41.2761 26.9544 42.002 24 42C21.0456 42.002 18.1362 41.2761 15.529 39.8863C12.9219 38.4966 10.6973 36.4859 9.052 34.032C7.48546 31.6968 6.4878 29.0271 6.13901 26.2369C5.79022 23.4466 6.09999 20.6135 7.0435 17.9645C7.987 15.3156 9.53799 12.9246 11.5721 10.9831C13.6063 9.04161 16.067 7.60371 18.757 6.78466C21.447 5.9656 24.2915 5.78817 27.0625 6.26659C29.8334 6.74501 32.4538 7.86597 34.7134 9.53961C36.9731 11.2133 38.8092 13.393 40.0745 15.9042C41.3399 18.4153 41.9994 21.188 42 24Z" stroke="white" stroke-width="1.5"/>
<path d="M26.5 18C26.5 19.38 25.38 20.5 24 20.5V23.5C25.4587 23.5 26.8577 22.9205 27.8891 21.8891C28.9206 20.8576 29.5 19.4587 29.5 18H26.5ZM24 20.5C22.62 20.5 21.5 19.38 21.5 18H18.5C18.5 19.4587 19.0795 20.8576 20.1109 21.8891C21.1424 22.9205 22.5413 23.5 24 23.5V20.5ZM21.5 18C21.5 16.62 22.62 15.5 24 15.5V12.5C22.5413 12.5 21.1424 13.0795 20.1109 14.1109C19.0795 15.1424 18.5 16.5413 18.5 18H21.5ZM24 15.5C25.38 15.5 26.5 16.62 26.5 18H29.5C29.5 16.5413 28.9206 15.1424 27.8891 14.1109C26.8577 13.0795 25.4587 12.5 24 12.5V15.5ZM10.332 35.712L8.89403 35.284L8.66003 36.068L9.19403 36.688L10.332 35.712ZM37.668 35.712L38.808 36.69L39.34 36.07L39.106 35.284L37.668 35.712ZM18 31.5H30V28.5H18V31.5ZM18 28.5C15.9542 28.5001 13.9631 29.1603 12.3225 30.3826C10.6819 31.6048 9.47953 33.3238 8.89403 35.284L11.77 36.14C12.1711 34.7993 12.9939 33.6237 14.1162 32.7878C15.2386 31.9519 16.6006 31.5003 18 31.5V28.5ZM24 40.5C21.6189 40.5027 19.2655 39.9888 17.1022 38.9937C14.9389 37.9985 13.0174 36.5459 11.47 34.736L9.19403 36.688C11.023 38.826 13.2937 40.5439 15.8498 41.7196C18.4059 42.8952 21.1865 43.5027 24 43.5V40.5ZM30 31.5C32.94 31.5 35.43 33.456 36.23 36.14L39.106 35.284C38.5205 33.3238 37.3181 31.6048 35.6776 30.3826C34.037 29.1603 32.0458 28.5001 30 28.5V31.5ZM36.53 34.736C34.9827 36.5459 33.0611 37.9985 30.8979 38.9937C28.7346 39.9888 26.3812 40.5027 24 40.5V43.5C26.8135 43.5027 29.5942 42.8952 32.1503 41.7196C34.7063 40.5439 36.9791 38.828 38.808 36.69L36.53 34.736Z" fill="white"/>
</svg>
